<svg xmlns="http://www.w3.org/2000/svg" width="21" height="19.361" viewBox="0 0 21 19.361">
  <g id="リロードのフリーアイコン" transform="translate(0 -20)">
    <path id="パス_71" data-name="パス 71" d="M18.294,22.962A9.656,9.656,0,0,0,11.716,20a1.174,1.174,0,0,0-.1,2.346,7.336,7.336,0,1,1-7.64,7.33q0-.214.012-.425l1.4.69a.518.518,0,0,0,.466,0,.4.4,0,0,0,.216-.365l-.138-6.146a.525.525,0,0,0-.808-.4L.164,26.664a.4.4,0,0,0-.158.393.513.513,0,0,0,.286.368l1.465.723a9.682,9.682,0,1,0,16.537-5.186Z" transform="translate(0 0)" fill="#555"/>
  </g>
</svg>
