<svg id="メニューの無料アイコン4" xmlns="http://www.w3.org/2000/svg" width="16.459" height="16.459" viewBox="0 0 16.459 16.459">
  <path id="パス_53" data-name="パス 53" d="M1.609,0A1.609,1.609,0,1,0,3.218,1.609,1.609,1.609,0,0,0,1.609,0Z" fill="#f06969"/>
  <path id="パス_54" data-name="パス 54" d="M207.562,0a1.609,1.609,0,1,0,1.609,1.609A1.609,1.609,0,0,0,207.562,0Z" transform="translate(-199.332)" fill="#f06969"/>
  <path id="パス_55" data-name="パス 55" d="M413.516,3.218a1.609,1.609,0,1,0-1.609-1.609A1.609,1.609,0,0,0,413.516,3.218Z" transform="translate(-398.666)" fill="#f06969"/>
  <path id="パス_56" data-name="パス 56" d="M1.609,205.953a1.609,1.609,0,1,0,1.609,1.609A1.609,1.609,0,0,0,1.609,205.953Z" transform="translate(0 -199.332)" fill="#f06969"/>
  <path id="パス_57" data-name="パス 57" d="M207.562,205.953a1.609,1.609,0,1,0,1.609,1.609A1.609,1.609,0,0,0,207.562,205.953Z" transform="translate(-199.332 -199.332)" fill="#f06969"/>
  <path id="パス_58" data-name="パス 58" d="M413.516,205.953a1.609,1.609,0,1,0,1.609,1.609A1.609,1.609,0,0,0,413.516,205.953Z" transform="translate(-398.666 -199.332)" fill="#f06969"/>
  <path id="パス_59" data-name="パス 59" d="M1.609,411.907a1.609,1.609,0,1,0,1.609,1.609A1.609,1.609,0,0,0,1.609,411.907Z" transform="translate(0 -398.666)" fill="#f06969"/>
  <path id="パス_60" data-name="パス 60" d="M207.562,411.907a1.609,1.609,0,1,0,1.609,1.609A1.609,1.609,0,0,0,207.562,411.907Z" transform="translate(-199.332 -398.666)" fill="#f06969"/>
  <path id="パス_61" data-name="パス 61" d="M413.516,411.907a1.609,1.609,0,1,0,1.609,1.609A1.609,1.609,0,0,0,413.516,411.907Z" transform="translate(-398.666 -398.666)" fill="#f06969"/>
</svg>
