<svg xmlns="http://www.w3.org/2000/svg" width="16.459" height="16.514" viewBox="0 0 16.459 16.514">
  <g id="flow" transform="translate(0.001 0.001)">
    <path id="パス_62" data-name="パス 62" d="M15.766,13.92a5.23,5.23,0,0,0-.439-3.614,4.9,4.9,0,0,0-.767-1.052,2.19,2.19,0,0,0-1.175-3.07A4.38,4.38,0,0,0,10.41,2.092a2.2,2.2,0,0,0-4.374-.146,4.187,4.187,0,0,0-3.126,4.3,2.183,2.183,0,0,0-.9,3.23,4.993,4.993,0,0,0-.621.815,5.287,5.287,0,0,0-.65,3.587,1.363,1.363,0,1,0,.61-.149c-.026,0-.05.006-.075.008a4.726,4.726,0,0,1,.584-3.16,4.381,4.381,0,0,1,.525-.684A2.185,2.185,0,0,0,5.3,9.859a4.266,4.266,0,0,1,.476.706,4.661,4.661,0,0,1,.4,3.182,1.373,1.373,0,1,0,.525.173,5.218,5.218,0,0,0-.439-3.614,4.793,4.793,0,0,0-.6-.868,2.2,2.2,0,0,0-1.84-3.4,2.253,2.253,0,0,0-.374.031,3.648,3.648,0,0,1,2.6-3.56,2.2,2.2,0,0,0,4.32.145,3.849,3.849,0,0,1,2.468,3.4,2.2,2.2,0,0,0-1.9,3.6,4.966,4.966,0,0,0-.475.644,5.3,5.3,0,0,0-.649,3.587,1.363,1.363,0,1,0,.609-.15c-.026,0-.049.006-.075.008a4.738,4.738,0,0,1,.584-3.161,4.37,4.37,0,0,1,.409-.557,2.184,2.184,0,0,0,2.9-.31,4.335,4.335,0,0,1,.6.854,4.671,4.671,0,0,1,.4,3.182,1.36,1.36,0,0,0-.157-.016,1.391,1.391,0,1,0,.682.188ZM2.176,15.1a.824.824,0,1,1-.824-.824A.824.824,0,0,1,2.176,15.1Zm3.845.824a.824.824,0,1,1,.824-.824A.824.824,0,0,1,6.021,15.929Zm-.549-7.69A1.618,1.618,0,0,1,5.1,9.282a1.643,1.643,0,0,1-2.517.035,1.622,1.622,0,0,1-.406-1.079A1.644,1.644,0,0,1,3.289,6.681a1.548,1.548,0,0,1,.535-.09A1.65,1.65,0,0,1,5.472,8.239ZM8.218,3.844A1.648,1.648,0,1,1,9.866,2.2,1.648,1.648,0,0,1,8.218,3.844ZM11.239,15.1a.824.824,0,1,1-.824-.824A.824.824,0,0,1,11.239,15.1Zm1.373-5.218A1.648,1.648,0,1,1,14.26,8.239,1.648,1.648,0,0,1,12.613,9.886Zm2.472,6.042a.824.824,0,1,1,.824-.824A.824.824,0,0,1,15.084,15.929Zm0,0" transform="translate(0)" fill="#f06969"/>
  </g>
</svg>
